<svg xmlns="http://www.w3.org/2000/svg" viewBox="0 0 200 200" width="200" height="200">
  <rect width="200" height="200" rx="44" fill="#6ec6ff"/>
  <path d="M56 72 L48 30 L88 54 Z" fill="#ffffff" stroke="#bcd9f5" stroke-width="4" stroke-linejoin="round"/>
  <path d="M62 65 L57 43 L79 56 Z" fill="#ffc0d9"/>
  <path d="M144 72 L152 30 L112 54 Z" fill="#ffffff" stroke="#bcd9f5" stroke-width="4" stroke-linejoin="round"/>
  <path d="M138 65 L143 43 L121 56 Z" fill="#ffc0d9"/>
  <circle cx="100" cy="102" r="56" fill="#ffffff" stroke="#bcd9f5" stroke-width="4"/>
  <ellipse cx="64" cy="116" rx="12" ry="8" fill="#ff9bc4" opacity="0.6"/>
  <ellipse cx="136" cy="116" rx="12" ry="8" fill="#ff9bc4" opacity="0.6"/>
  <g stroke="#2f6ede" stroke-width="7" fill="none" stroke-linecap="round">
    <path d="M70 98 q 12 -15 24 0"/>
    <path d="M106 98 q 12 -15 24 0"/>
  </g>
  <path d="M94 118 L106 118 L100 126 Z" fill="#ff8fb1"/>
  <path d="M84 126 q 16 20 32 0" stroke="#2f6ede" stroke-width="5" fill="none" stroke-linecap="round"/>
  <g stroke="#bcd9f5" stroke-width="4" stroke-linecap="round">
    <path d="M40 110 h22 M42 122 h20"/>
    <path d="M160 110 h-22 M158 122 h-20"/>
  </g>
  <text x="100" y="185" font-family="Arial, sans-serif" font-size="30" font-weight="bold" fill="#2f6ede" text-anchor="middle">×  ÷</text>
</svg>
